<svg xmlns="http://www.w3.org/2000/svg" width="1080" height="1080" viewBox="0 0 1080 1080" preserveAspectRatio="xMidYMid meet"><defs><clipPath id="animationMask_vjUEvZrPTs"><rect width="1080" height="1080" x="0" y="0"></rect></clipPath></defs><g clip-path="url(#animationMask_vjUEvZrPTs)" style="-webkit-user-select: none;"><g transform="matrix(1.4658165,0,0,1.4658165,156.44361687499998,383.29087000299995)" style="-webkit-user-select: none;"><path d=" M134.854,200.18599999999998 C134.854,200.18599999999998 0.25,200.248 0.25,200.248 C0.25,200.248 0.25,90.178 0.25,90.178 C0.25,90.178 134.854,90.11599999999999 134.854,90.11599999999999 C134.854,90.11599999999999 134.854,200.18599999999998 134.854,200.18599999999998z" style="fill: rgb(232, 232, 232); fill-opacity: 1;"></path><path d=" M83.251,123.949 C83.251,123.949 51.251000000000005,123.949 51.251000000000005,123.949 C51.251000000000005,123.949 51.251000000000005,120.93900000000001 51.251000000000005,120.93900000000001 C51.251000000000005,120.93900000000001 83.251,120.93900000000001 83.251,120.93900000000001 C83.251,120.93900000000001 83.251,123.949 83.251,123.949z" style="fill: rgb(255, 255, 255); fill-opacity: 1;"></path><path d=" M83.251,167.161 C83.251,167.161 51.251000000000005,167.161 51.251000000000005,167.161 C51.251000000000005,167.161 51.251000000000005,164.151 51.251000000000005,164.151 C51.251000000000005,164.151 83.251,164.151 83.251,164.151 C83.251,164.151 83.251,167.161 83.251,167.161z" style="fill: rgb(255, 255, 255); fill-opacity: 1;"></path><path d=" M0.25,200.187 C0.25,200.187 0.25,216.187 0.25,216.187 C0.25,216.187 8.25,216.187 8.25,216.187 C8.25,216.187 9.918,200.187 18.584,200.187 C18.584,200.187 0.25,200.187 0.25,200.187z" style="fill: rgb(232, 232, 232); fill-opacity: 1;"></path><path d=" M251.85500000000002,200.186 C251.85500000000002,200.186 117.621,200.186 117.621,200.186 C117.621,200.186 117.621,90.11600000000001 117.621,90.11600000000001 C117.621,90.11600000000001 251.85500000000002,90.11600000000001 251.85500000000002,90.11600000000001 C251.85500000000002,90.11600000000001 251.85500000000002,200.186 251.85500000000002,200.186z" style="fill: rgb(232, 232, 232); fill-opacity: 1;"></path><path d=" M204.003,123.949 C204.003,123.949 172.003,123.949 172.003,123.949 C172.003,123.949 172.003,120.93900000000001 172.003,120.93900000000001 C172.003,120.93900000000001 204.003,120.93900000000001 204.003,120.93900000000001 C204.003,120.93900000000001 204.003,123.949 204.003,123.949z" style="fill: rgb(255, 255, 255); fill-opacity: 1;"></path><path d=" M204.003,167.161 C204.003,167.161 172.003,167.161 172.003,167.161 C172.003,167.161 172.003,164.151 172.003,164.151 C172.003,164.151 204.003,164.151 204.003,164.151 C204.003,164.151 204.003,167.161 204.003,167.161z" style="fill: rgb(255, 255, 255); fill-opacity: 1;"></path><path d=" M252.25,198.187 C252.25,198.187 252.25,214.187 252.25,214.187 C252.25,214.187 244.988,214.187 244.988,214.187 C244.988,214.187 243.37099999999998,198.187 234.962,198.187 C234.962,198.187 252.25,198.187 252.25,198.187z" style="fill: rgb(232, 232, 232); fill-opacity: 1;"></path><g style="stroke-linecap: butt; stroke-linejoin: miter; fill-opacity: 0; stroke-miterlimit: 10; stroke: rgb(255, 255, 255); stroke-opacity: 1; stroke-width: 1;"><path d=" M242.893,189.511 C242.893,189.511 126.58500000000001,189.511 126.58500000000001,189.511 C126.58500000000001,189.511 126.58500000000001,144.809 126.58500000000001,144.809 C126.58500000000001,144.809 242.893,144.809 242.893,144.809 C242.893,144.809 242.893,189.511 242.893,189.511z"></path></g><g style="stroke-linecap: butt; stroke-linejoin: miter; fill-opacity: 0; stroke-miterlimit: 10; stroke: rgb(255, 255, 255); stroke-opacity: 1; stroke-width: 1;"><path d=" M242.893,144.79500000000002 C242.893,144.79500000000002 126.58500000000001,144.79500000000002 126.58500000000001,144.79500000000002 C126.58500000000001,144.79500000000002 126.58500000000001,100.093 126.58500000000001,100.093 C126.58500000000001,100.093 242.893,100.093 242.893,100.093 C242.893,100.093 242.893,144.79500000000002 242.893,144.79500000000002z"></path></g><path d=" M56.799,0.25 C56.799,0.25 56.799,4.049999999999997 56.799,4.049999999999997 C56.799,4.049999999999997 24.698999999999998,4.049999999999997 24.698999999999998,4.049999999999997 C24.698999999999998,4.049999999999997 20.299,47.65 20.299,47.65 C20.299,47.65 56.799,47.65 56.799,47.65 C56.799,47.65 56.799,53.65 56.799,53.65 C56.799,56.65 51.999,57.849999999999994 46.299,59.25 C37.799,61.349999999999994 27.099,64.05 27.099,75.15 C27.099,78.15 28.199,80.75 30.399,82.85 C34.199,86.55 40.799,88.15 46.498999999999995,88.94999999999999 C46.498999999999995,88.94999999999999 46.498999999999995,90.6 46.498999999999995,90.6 C46.498999999999995,90.6 69.199,90.6 69.199,90.6 C69.199,90.6 69.199,88.85 69.199,88.85 C74.899,88.05 81.299,86.45 85.099,82.75 C87.299,80.65 88.399,78.05 88.399,75.05 C88.499,64.05 77.799,61.349999999999994 69.299,59.25 C63.699,57.849999999999994 58.799,56.65 58.799,53.65 C58.799,53.65 58.799,47.65 58.799,47.65 C58.799,47.65 66.499,47.65 66.499,47.65 C66.499,47.65 68.699,47.65 68.699,47.65 C68.699,47.65 95.299,47.65 95.299,47.65 C95.299,47.65 90.899,4.049999999999997 90.899,4.049999999999997 C90.899,4.049999999999997 58.999,4.049999999999997 58.999,4.049999999999997 C58.999,4.049999999999997 58.999,0.25 58.999,0.25 C58.999,0.25 56.799,0.25 56.799,0.25z" style="fill: rgb(232, 232, 232); fill-opacity: 1;"></path><path d=" M46.599000000000004,92.15 C46.599000000000004,92.15 46.599000000000004,93.35 46.599000000000004,93.35 C46.599000000000004,93.35 69.199,93.35 69.199,93.35 C69.199,93.35 69.199,92.15 69.199,92.15" style="fill: rgb(232, 232, 232); fill-opacity: 1;"></path><g style="stroke-linecap: butt; stroke-linejoin: miter; fill-opacity: 0; stroke-miterlimit: 10; stroke: rgb(255, 255, 255); stroke-opacity: 1; stroke-width: 1;"><path d=" M126.583,189.511 C126.583,189.511 10.274999999999999,189.511 10.274999999999999,189.511 C10.274999999999999,189.511 10.274999999999999,144.809 10.274999999999999,144.809 C10.274999999999999,144.809 126.583,144.809 126.583,144.809 C126.583,144.809 126.583,189.511 126.583,189.511z"></path></g><g style="stroke-linecap: butt; stroke-linejoin: miter; fill-opacity: 0; stroke-miterlimit: 10; stroke: rgb(255, 255, 255); stroke-opacity: 1; stroke-width: 1;"><path d=" M126.583,144.79500000000002 C126.583,144.79500000000002 10.274999999999999,144.79500000000002 10.274999999999999,144.79500000000002 C10.274999999999999,144.79500000000002 10.274999999999999,100.093 10.274999999999999,100.093 C10.274999999999999,100.093 126.583,100.093 126.583,100.093 C126.583,100.093 126.583,144.79500000000002 126.583,144.79500000000002z"></path></g></g><g opacity="1" style="-webkit-user-select: none;"><g transform="matrix(0.85,0,0,0.85,429.19999999999993,789)" style="-webkit-user-select: none;"><path d=" M285.442,15.779 C285.442,23.988 221.73499999999999,30.64 143.162,30.64 C64.588,30.64 0.8880000000000052,23.988 0.8880000000000052,15.779 C0.8880000000000052,7.573 64.588,0.9220000000000006 143.162,0.9220000000000006 C221.73499999999999,0.9220000000000006 285.442,7.573 285.442,15.779z" style="fill: rgb(238, 238, 238); fill-opacity: 1;"></path></g><g transform="matrix(0.85,0,0,0.85,484.44999999999993,761.7116)" style="-webkit-user-select: none;"><path d=" M52.887,1.1060000000000016 C52.887,1.1060000000000016 52.887,44.548 52.887,44.548 C52.887,44.548 7.493000000000002,44.548 7.493000000000002,44.548 C7.493000000000002,44.548 5.929000000000002,29.502000000000002 10.900000000000002,29.502000000000002 C22.26,29.502000000000002 20.61,1.1060000000000016 20.61,1.1060000000000016 C20.61,1.1060000000000016 52.887,1.1060000000000016 52.887,1.1060000000000016z" style="fill: rgb(240, 91, 91); fill-opacity: 1;"></path><path d=" M1.2439999999999998,41.354 C1.2439999999999998,33.355 10.360999999999999,26.873999999999995 21.595,26.873999999999995 C32.835,26.873999999999995 41.952,33.355 41.952,41.354 C41.952,41.354 1.2439999999999998,41.354 1.2439999999999998,41.354z" style="fill: rgb(240, 91, 91); fill-opacity: 1;"></path><path d=" M35.313,33.375 C35.313,33.375 42,43.707 42,43.707" style="fill: rgb(240, 91, 91); fill-opacity: 1;"></path><g style="stroke-linecap: butt; stroke-linejoin: miter; fill-opacity: 0; stroke-miterlimit: 4; stroke: rgb(255, 255, 255); stroke-opacity: 1; stroke-width: 5;"><path d=" M35.313,33.375 C35.313,33.375 42,43.707 42,43.707"></path></g><path d=" M23,-0.25 C23,-0.25 21,8.5 25.751,8.768 C37.75,8.768 38,16.25 40.25,15.75 C44.25,15.75 50.5,14.25 50.75,7.25 C50.91,2.7809999999999997 23,-0.25 23,-0.25z" style="fill: rgb(0, 0, 0); fill-opacity: 1;"></path><g style="stroke-linecap: butt; stroke-linejoin: miter; fill-opacity: 0; stroke-miterlimit: 4; stroke: rgb(0, 0, 0); stroke-opacity: 1; stroke-width: 5;"><path d=" M23,-0.25 C23,-0.25 21,8.5 25.751,8.768 C37.75,8.768 38,16.25 40.25,15.75 C44.25,15.75 50.5,14.25 50.75,7.25 C50.91,2.7809999999999997 23,-0.25 23,-0.25z"></path></g><path d=" M43.75,26.766 C43.75,26.766 39.906,29.063 39.906,29.063 C39.906,29.063 48.75,42.875 48.75,42.875 C48.75,42.875 52.742,40.863 52.742,40.863 C52.742,40.863 43.75,26.766 43.75,26.766z" style="fill: rgb(255, 255, 255); fill-opacity: 1;"></path><path d=" M52.852999999999994,47.104000000000006 C52.852999999999994,47.104000000000006 1.245000000000001,47.104000000000006 1.245000000000001,47.104000000000006 C1.245000000000001,47.104000000000006 1.245000000000001,40.436 1.245000000000001,40.436 C1.245000000000001,40.436 52.852999999999994,40.436 52.852999999999994,40.436 C52.852999999999994,40.436 52.852999999999994,47.104000000000006 52.852999999999994,47.104000000000006z" style="fill: rgb(182, 182, 182); fill-opacity: 1;"></path></g><g transform="matrix(0.85,0,0,0.85,566.05,761.8)" style="-webkit-user-select: none;"><path d=" M0.615000000000002,1.1060000000000016 C0.615000000000002,1.1060000000000016 0.615000000000002,44.548 0.615000000000002,44.548 C0.615000000000002,44.548 71.955,44.548 71.955,44.548 C71.955,44.548 81.565,26.660000000000004 63.251000000000005,26.660000000000004 C35.14,26.660000000000004 32.132000000000005,1.1060000000000016 32.132000000000005,1.1060000000000016 C32.132000000000005,1.1060000000000016 29.137000000000004,-1.617999999999995 25.751000000000005,-2.2559999999999967 C20.071000000000005,-3.325999999999997 12.383000000000003,-2.607999999999997 9.250000000000004,-3.1439999999999984 C4.25,-3.9989999999999988 0.615000000000002,1.1060000000000016 0.615000000000002,1.1060000000000016z" style="fill: rgb(240, 91, 91); fill-opacity: 1;"></path><path d=" M45.974000000000004,40.927 C45.974000000000004,32.928 54.266000000000005,26.446999999999996 64.501,26.446999999999996 C74.73,26.446999999999996 83.028,32.928 83.028,40.927 C83.028,40.927 45.974000000000004,40.927 45.974000000000004,40.927z" style="fill: rgb(240, 91, 91); fill-opacity: 1;"></path><path d=" M23.654,42.019 C23.654,42.019 33,28 33,28" style="fill: rgb(222, 222, 222); fill-opacity: 1;"></path><g style="stroke-linecap: butt; stroke-linejoin: miter; fill-opacity: 0; stroke-miterlimit: 4; stroke: rgb(255, 255, 255); stroke-opacity: 1; stroke-width: 5;"><path d=" M23.654,42.019 C23.654,42.019 33,28 33,28"></path></g><path d=" M35.269,43.846 C35.269,43.846 42.5,33 42.5,33" style="fill: rgb(222, 222, 222); fill-opacity: 1;"></path><g style="stroke-linecap: butt; stroke-linejoin: miter; fill-opacity: 0; stroke-miterlimit: 4; stroke: rgb(255, 255, 255); stroke-opacity: 1; stroke-width: 5;"><path d=" M35.269,43.846 C35.269,43.846 42.5,33 42.5,33"></path></g><path d=" M83.029,47.104000000000006 C83.029,47.104000000000006 0.615000000000002,47.104000000000006 0.615000000000002,47.104000000000006 C0.615000000000002,47.104000000000006 0.615000000000002,40.436 0.615000000000002,40.436 C0.615000000000002,40.436 83.029,40.436 83.029,40.436 C83.029,40.436 83.029,47.104000000000006 83.029,47.104000000000006z" style="fill: rgb(182, 182, 182); fill-opacity: 1;"></path><path d=" M22,-7 C15.25,-8.75 5.5,-1.25 4.25,3.5 C3,8.25 4.25,8 4.25,8 C4.25,8 16.253,22.961 29.5,7.25 C32.75,-2 28.75,-5.25 22,-7z" style="fill: rgb(0, 0, 0); fill-opacity: 1;"></path><g style="stroke-linecap: butt; stroke-linejoin: miter; fill-opacity: 0; stroke-miterlimit: 4; stroke: rgb(0, 0, 0); stroke-opacity: 1; stroke-width: 5;"><path d=" M22,-7 C15.25,-8.75 5.5,-1.25 4.25,3.5 C3,8.25 4.25,8 4.25,8 C4.25,8 16.253,22.961 29.5,7.25 C32.75,-2 28.75,-5.25 22,-7z"></path></g></g><g transform="matrix(0.85,0,0,0.85,229.45,568)" style="-webkit-user-select: none;"><g style="stroke-linecap: butt; stroke-linejoin: round; fill-opacity: 0; stroke: rgb(68, 69, 69); stroke-opacity: 1; stroke-width: 46;"><path d=" M338.066,25.135 C338.066,25.135 336.497,130.634 336.497,130.634 C336.497,130.634 335.008,237.647 335.008,237.647"></path></g></g><g transform="matrix(0.85,0,0,0.85,229.45,568)" style="-webkit-user-select: none;"><g style="stroke-linecap: butt; stroke-linejoin: round; fill-opacity: 0; stroke: rgb(68, 69, 69); stroke-opacity: 1; stroke-width: 46;"><path d=" M387,24.5 C387,24.5 402.5,134.5 402.5,134.5 C402.5,134.5 416,237 416,237"></path></g></g><g transform="matrix(0.85,0,0,0.85,186.95,568)" style="-webkit-user-select: none;"><path d=" M385,55.5 C385,55.5 399.974,45.375 416.506,45.658 C436.5,46 449.917,54.136 449.917,54.136 C449.917,54.136 464.5,4.5 413.501,5.759 C367.008,6.907 385,55.5 385,55.5z" style="fill: rgb(68, 69, 69); fill-opacity: 1;"></path><path d="" style="fill: rgb(68, 69, 69); fill-opacity: 1;"></path></g><g transform="matrix(0.85,0,0,0.85,495.5,452.4)" style="-webkit-user-select: none;"><path d=" M97.99799999999999,169.091 C97.07,169.966 72.459,170.47899999999998 48.187,170.59199999999998 C24.537,170.702 1.2069999999999936,170.433 0.41899999999999693,169.752 C-0.18500000000000227,169.23 -0.33099999999999596,153.062 -0.2809999999999988,133.155 C-0.1980000000000004,100.42099999999999 0.41899999999999693,57.57899999999999 0.41899999999999693,57.57899999999999 C0.41899999999999693,57.57899999999999 -0.7620000000000005,34.410999999999994 4.579999999999998,31.129999999999995 C16.43,23.851 32.974000000000004,17.314999999999998 46.4,16.245999999999995 C52.025,15.798000000000002 57.722,16.044999999999987 63.206,17.00099999999999 C75.96000000000001,19.22399999999999 92.99799999999999,26.276999999999994 103.674,37.181999999999995 C105.518,41.248999999999995 106.532,53.64 103.589,60.372 C101.632,64.84899999999999 101.39,83.51599999999999 101.39,83.51599999999999 C101.39,83.51599999999999 100.89099999999999,110.335 100.126,133.95 C99.538,152.08999999999997 98.794,168.33999999999997 97.99799999999999,169.091z" style="fill: rgb(83, 191, 179); fill-opacity: 1;"></path><path d=" M48.910000000000004,100.07000000000001 C48.910000000000004,100.07000000000001 19.302,100.07000000000001 19.302,100.07000000000001 C19.302,100.07000000000001 19.302,67.592 19.302,67.592 C19.302,67.592 22.71,67.592 22.71,67.592 C22.71,67.592 22.71,96.664 22.71,96.664 C22.71,96.664 45.502,96.664 45.502,96.664 C45.502,96.664 45.502,67.592 45.502,67.592 C45.502,67.592 48.910000000000004,67.592 48.910000000000004,67.592 C48.910000000000004,67.592 48.910000000000004,100.07000000000001 48.910000000000004,100.07000000000001z" style="fill: rgb(45, 116, 129); fill-opacity: 1;"></path></g><g transform="matrix(1.011481235364283,0.006161209779231218,-0.006161209779231218,1.011481235364283,557.861087402446,475.6373810501807)" style="-webkit-user-select: none;"><path d=" M39.748000000000005,45.536 C33.870000000000005,49.989000000000004 29.907,54.869 29.907,54.869 C29.907,54.869 43.921,73.141 50.636,80.617 C54.252,82.91499999999999 59.613,82.623 64.64,77.79 C69.983,72.653 65.171,66.891 65.171,66.891 C65.171,66.891 50.08,39.022999999999996 50.08,39.022999999999996 C50.08,39.022999999999996 45.626000000000005,41.083 39.748000000000005,45.536z" style="fill: rgb(174, 124, 63); fill-opacity: 1;"></path><path d=" M28.854,57.006 C28.854,57.006 9.835999999999999,35.166 7.276,30.109 C4.716000000000001,25.052 0.24900000000000233,17.351999999999997 7.155000000000001,8.800999999999998 C14.060000000000002,0.25 21.911,4.184999999999999 24.328,6.224 C26.745,8.264 52.226,38.869 52.226,38.869 C52.226,38.869 28.854,57.006 28.854,57.006z" style="fill: rgb(83, 191, 179); fill-opacity: 1;"></path></g><g transform="matrix(0.9924720220522064,-0.19527297673668248,0.19527297673668248,0.9924720220522064,593.751090513193,510.1984006057465)" style="-webkit-user-select: none;"><path d=" M6.291,49.442 C11.257000000000001,55.524 20.558,50.521 20.706,50.381 C27.58,43.919 36.440999999999995,33.526 52.024,15.665000000000001 C52.024,15.665000000000001 55.074,8.402999999999999 47.379999999999995,3.7040000000000006 C41.724999999999994,0.25 36.848,4.479000000000003 35.289,6.751000000000001 C35.289,6.751000000000001 8.690999999999999,34.393 8.690999999999999,34.393 C8.690999999999999,34.393 0.25,42.043 6.291,49.442z" style="fill: rgb(174, 124, 63); fill-opacity: 1;"></path></g><g transform="matrix(0.9956043913338434,-0.17861731706854977,0.17861731706854977,0.9956043913338434,619.6470533067459,453.76787599838315)" style="-webkit-user-select: none;"><path d=" M44.361000000000004,25.997999999999998 C44.361000000000004,25.997999999999998 47.512,25.793999999999997 46.42,29.584999999999997 C46.053,30.855999999999998 35.555,40.433 35.555,40.433 C35.555,40.433 29.613,42.361 29.613,42.361 C29.613,42.361 33.075,40.938 35.788000000000004,40.219 C37.813,38.528999999999996 39.667,39.068 39.636,40.727 C39.618,41.705999999999996 38.522000000000006,42.961 37.873000000000005,44.116 C35.729,47.927 31.197000000000003,52.033 31.197000000000003,52.033 C31.197000000000003,52.033 19.997,63.699 16.101,64.834 C14.214,65.384 9.242,65.15899999999999 6.279,63.217 C1.7639999999999993,60.257999999999996 3.094000000000001,54.376999999999995 3.094000000000001,54.376999999999995 C3.094000000000001,54.376999999999995 7.648000000000003,46.382 7.648000000000003,46.382 C7.648000000000003,46.382 18.878,34.964 18.878,34.964 C18.878,34.964 44.361000000000004,25.997999999999998 44.361000000000004,25.997999999999998z" style="fill: rgb(174, 124, 63); fill-opacity: 1;"></path><path d=" M23.433999999999997,52.532 C23.433999999999997,52.532 7.059999999999999,40.669 7.059999999999999,40.669 C5.724,39.701 5.422999999999998,37.815 6.390999999999998,36.479 C6.390999999999998,36.479 31.456,1.8870000000000005 31.456,1.8870000000000005 C32.424,0.5510000000000019 34.309,0.25 35.644999999999996,1.218 C35.644999999999996,1.218 52.019,13.081 52.019,13.081 C53.355999999999995,14.049999999999999 53.657,15.935 52.688,17.271 C52.688,17.271 27.622999999999998,51.863 27.622999999999998,51.863 C26.654,53.199 24.77,53.5 23.433999999999997,52.532z" style="fill: rgb(68, 69, 69); fill-opacity: 1;"></path><path d=" M27.354,45.442 C27.354,45.442 11.684999999999999,33.719 11.684999999999999,33.719 C11.684999999999999,33.719 31.336,7.0120000000000005 31.336,7.0120000000000005 C31.336,7.0120000000000005 47.004999999999995,18.734 47.004999999999995,18.734 C47.004999999999995,18.734 27.354,45.442 27.354,45.442z" style="fill: rgb(255, 255, 255); fill-opacity: 1;"></path><path d=" M3.0950000000000006,54.377 C3.0950000000000006,54.377 0.5490000000000013,41.106 0.3990000000000009,37.256 C0.24900000000000055,33.406 14.263000000000002,22.541 14.263000000000002,22.541 C14.263000000000002,22.541 17.972,21.500999999999998 17.678,25.421 C17.383000000000003,29.341 9.707,35.791 9.707,35.791 C9.707,35.791 11.721,42.994 11.527000000000001,47.354 C11.334,51.714 12.047,57.248000000000005 12.047,57.248000000000005 C12.047,57.248000000000005 3.0950000000000006,54.377 3.0950000000000006,54.377z" style="fill: rgb(174, 124, 63); fill-opacity: 1;"></path><path d=" M43.298,11.603 C43.298,11.603 43.013,11.977 43.013,11.977 C43.013,11.977 38.384,8.447000000000001 38.384,8.447000000000001 C38.384,8.447000000000001 38.668,8.073 38.668,8.073 C38.668,8.073 43.298,11.603 43.298,11.603z" style="fill: rgb(255, 255, 255); fill-opacity: 1;"></path><path d=" M19.629,43.948 C19.629,43.948 19.344,44.321999999999996 19.344,44.321999999999996 C19.344,44.321999999999996 14.715,40.791999999999994 14.715,40.791999999999994 C14.715,40.791999999999994 14.999,40.418 14.999,40.418 C14.999,40.418 19.629,43.948 19.629,43.948z" style="fill: rgb(255, 255, 255); fill-opacity: 1;"></path></g><g transform="matrix(0.85,0,0,0.85,515.9,409.9)" style="-webkit-user-select: none;"><path d=" M44.604,83.879 C44.604,83.879 39.922,26.521000000000004 39.922,26.521000000000004 C38.999,17.000000000000004 32.25,9.250000000000004 21.463,10.756000000000004 C10.963000000000001,12.222000000000005 4.499000000000002,22.750000000000004 5.957000000000001,32.702000000000005 C5.957000000000001,32.702000000000005 11.785,87.218 11.785,87.218 C11.785,87.218 44.604,83.879 44.604,83.879z" style="fill: rgb(137, 89, 36); fill-opacity: 1;"></path></g><g transform="matrix(0.85,0,0,0.85,186.95,568)" style="-webkit-user-select: none;"><path d=" M390.5,-111.5 C390.5,-111.5 370.5,-112 371.5,-92 C372.5,-72 418.59,-49.465 432,-55.5 C452,-64.5 452.712,-82.44399999999999 452.3,-93.993 C452.083,-100.06899999999999 438.5,-103 438.5,-103 C438.5,-103 390.5,-111.5 390.5,-111.5z" style="fill: rgb(83, 191, 179); fill-opacity: 1;"></path></g><g transform="matrix(0.85,0,0,0.85,495.5,452.4)" style="-webkit-user-select: none;"><path d=" M48.910000000000004,100.07000000000001 C48.910000000000004,100.07000000000001 19.302,100.07000000000001 19.302,100.07000000000001 C19.302,100.07000000000001 19.302,67.592 19.302,67.592 C19.302,67.592 22.71,67.592 22.71,67.592 C22.71,67.592 22.71,96.664 22.71,96.664 C22.71,96.664 45.502,96.664 45.502,96.664 C45.502,96.664 45.502,67.592 45.502,67.592 C45.502,67.592 48.910000000000004,67.592 48.910000000000004,67.592 C48.910000000000004,67.592 48.910000000000004,100.07000000000001 48.910000000000004,100.07000000000001z" style="fill: rgb(45, 116, 129); fill-opacity: 1;"></path></g><g transform="matrix(0.9452309377561655,-0.3600982148089596,0.3600982148089596,0.9452309377561655,453.5009780643693,493.79617253399334)" style="-webkit-user-select: none;"><path d=" M29.604999999999997,47.375 C23.293,43.562 17.291999999999998,41.688 17.291999999999998,41.688 C17.291999999999998,41.688 4.068,60.835 1.0459999999999994,70.474 C0.25,74.684 2.503999999999998,79.556 8.854999999999999,82.438 C15.604999999999999,85.5 20.084,79.348 20.084,79.348 C20.084,79.348 39.48,54.562 39.48,54.562 C39.48,54.562 35.917,51.188 29.604999999999997,47.375z" style="fill: rgb(174, 124, 63); fill-opacity: 1;"></path><path d=" M14.917000000000002,41.5 C14.917000000000002,41.5 28.167,15.75 31.917,11.5 C35.667,7.25 41.167,0.25 51.667,3.5 C62.167,6.75 61.417,15.5 60.417,18.5 C59.417,21.5 40.417,56.5 40.417,56.5 C40.417,56.5 14.917000000000002,41.5 14.917000000000002,41.5z" style="fill: rgb(83, 191, 179); fill-opacity: 1;"></path></g><g transform="matrix(0.9750417238394864,-0.26912058035780595,0.26912058035780595,0.9750417238394864,474.4364098815445,553.8008929654629)" style="-webkit-user-select: none;"><path d=" M15.576,1.9970000000000034 C7.921000000000001,0.25 3.76,6.884 3.705,7.080000000000002 C1.0730000000000004,16.497 1.5690000000000008,33.08 0.24900000000000055,56.747 C0.24900000000000055,56.747 2.3050000000000015,64.351 11.263000000000002,63.33 C17.846,62.58 19.097,56.247 18.93,53.497 C18.93,53.497 22.93,15.346000000000004 22.93,15.346000000000004 C22.93,15.346000000000004 24.889000000000003,4.122000000000003 15.576,1.9970000000000034z" style="fill: rgb(174, 124, 63); fill-opacity: 1;"></path></g><g transform="matrix(1.007818331255513,-0.08622332158617288,0.08622332158617288,1.007818331255513,486.09046076162963,596.0248123794371)" style="-webkit-user-select: none;"><path d=" M2.2319999999999993,11.417 C2.951999999999998,21.843 2.280999999999999,23.756 1.4499999999999993,37.44 C1.2850000000000001,40.158 6.677999999999997,41.147999999999996 15.125999999999998,40.616 C23.573999999999998,40.084 23.660999999999998,31.802 25.305999999999997,31.698 C26.951999999999998,31.594 28.017,31.626 28.381,33.348 C29.288999999999998,37.638000000000005 29.921,39.239999999999995 32.039,40.689 C35.23,42.872 39.18899999999999,40.979 37.035,38.518 C35.006,36.203 34.653999999999996,33.275999999999996 32.843999999999994,27.292 C29.848999999999997,17.387 21.987,20.269 21.154999999999998,8.22 C21.092,7.297000000000001 18.662,0.25 11.911999999999999,1.25 C1.879999999999999,2.737000000000002 2.2319999999999993,11.417 2.2319999999999993,11.417z" style="fill: rgb(174, 124, 63); fill-opacity: 1;"></path><path d=" M19.223,29.709999999999997 C19.223,29.709999999999997 27.744,25.811999999999998 27.186,28.58 C26.573999999999998,31.616999999999997 27.613999999999997,41.701 27.843999999999998,43.114 C28.438,46.763 28.66,48.979 31.29,52.834999999999994 C33.595,56.215999999999994 29.256,58.324 27.523999999999997,56.345 C23.768,52.053999999999995 22.465,48.571 21.592,44.086 C20.878,40.422 19.223,29.709999999999997 19.223,29.709999999999997z" style="fill: rgb(174, 124, 63); fill-opacity: 1;"></path><path d=" M13.26,32.464 C13.26,32.464 22.069,31.144999999999996 21.344,33.843999999999994 C20.549,36.805 20.714,44.559999999999995 20.849,45.955999999999996 C21.197,49.562 21.273,51.748999999999995 23.602,55.635999999999996 C25.646,59.043 21.256,60.949 19.685,58.94 C16.278,54.583 15.225,51.114 14.655999999999999,46.675999999999995 C14.192,43.049 13.26,32.464 13.26,32.464z" style="fill: rgb(174, 124, 63); fill-opacity: 1;"></path><path d=" M7.542999999999999,31.701999999999998 C7.542999999999999,31.701999999999998 15.780999999999999,30.700999999999997 14.918,33.263999999999996 C13.971,36.074999999999996 13.203999999999999,43.858999999999995 13.245,45.202999999999996 C13.352,48.678 13.828999999999999,50.714999999999996 14.773,54.763 C15.600999999999999,58.312 10.946,59.306 10.117999999999999,57.147 C8.323,52.467 7.542,49.946 7.276,45.668 C7.06,42.171 7.542999999999999,31.701999999999998 7.542999999999999,31.701999999999998z" style="fill: rgb(174, 124, 63); fill-opacity: 1;"></path><path d=" M3.032,29.454 C3.032,29.454 12.781,30.595999999999997 10.985,32.379999999999995 C8.109,35.239999999999995 6.908,39.184 6.495,40.282 C5.457,43.047999999999995 5.421,46.405 5.3309999999999995,49.89 C5.252,52.946 1.1840000000000002,53.193 0.9649999999999999,51.295 C0.4870000000000001,47.178 0.25099999999999945,44.9 0.7409999999999997,41.291 C1.141,38.339999999999996 3.032,29.454 3.032,29.454z" style="fill: rgb(174, 124, 63); fill-opacity: 1;"></path></g><g transform="matrix(1.4959873094710265,0.006161972219912113,-0.006161972219912113,1.4959873094710265,485.45175497604055,337.56160953558776)" style="-webkit-user-select: none;"><path d=" M66.331,42.158 C66.331,42.158 66.345,30.408 66.345,30.408 C66.355,23.442 63.651,16.887 58.732,11.954 C53.813,7.02 47.266000000000005,4.297000000000004 40.29900000000001,4.290000000000003 C40.29900000000001,4.290000000000003 40.30500000000001,0.28800000000000026 40.30500000000001,0.28800000000000026 C48.338,0.30100000000000193 55.891000000000005,3.4430000000000014 61.564,9.129000000000001 C67.238,14.821000000000002 70.357,22.379 70.34400000000001,30.415 C70.34400000000001,30.415 70.33,42.162000000000006 70.33,42.162000000000006 C70.33,42.162000000000006 66.331,42.158 66.331,42.158z" style="fill: rgb(117, 117, 117); fill-opacity: 1;"></path><path d=" M64.80099999999999,63.822 C61.06999999999999,63.817 58.056,58.256 58.06399999999999,51.393 C58.07599999999999,44.537 61.10399999999999,38.983000000000004 64.83099999999999,38.989000000000004 C64.83099999999999,38.989000000000004 68.58099999999999,38.994 68.58099999999999,38.994 C72.312,38.999 75.327,44.561 75.315,51.419000000000004 C75.30499999999999,58.279 72.27799999999999,63.833 68.55099999999999,63.827 C68.55099999999999,63.827 64.80099999999999,63.822 64.80099999999999,63.822z" style="fill: rgb(68, 69, 69); fill-opacity: 1;"></path><path d=" M78.899,51.422999999999995 C78.887,62.007999999999996 72.357,63.830999999999996 68.633,63.827999999999996 C64.901,63.821999999999996 61.888,58.262 61.897999999999996,51.4 C61.90599999999999,44.541999999999994 64.937,38.989 68.667,38.994 C72.39099999999999,38.998999999999995 78.914,41.17399999999999 78.899,51.422999999999995z" style="fill: rgb(7, 9, 9); fill-opacity: 1;"></path></g><g transform="matrix(1.4959873094710265,0.006161972219912113,-0.006161972219912113,1.4959873094710265,485.45175497604055,337.56160953558776)" style="-webkit-user-select: none;"><path d=" M60.361,27.378 C60.35699999999999,30.068 62.53699999999999,32.253 65.22999999999999,32.259 C67.92099999999999,32.261 70.10499999999999,30.083000000000002 70.11,27.389000000000003 C70.11699999999999,24.697000000000003 67.93299999999999,22.511000000000003 65.24199999999999,22.509 C62.54899999999999,22.503 60.364,24.683 60.361,27.378z" style="fill: rgb(7, 9, 9); fill-opacity: 1;"></path><path d=" M11.408000000000001,55.817 C11.494,65.591 16.418000000000003,74.184 23.900000000000002,79.339 C28.613000000000003,82.59299999999999 34.337,84.47399999999999 40.503,84.41999999999999 C56.434,84.28699999999999 69.242,71.261 69.107,55.32899999999999 C69.107,55.32899999999999 69.123,40.235 69.123,40.235 C68.992,24.301999999999996 55.969,11.497999999999998 40.035000000000004,11.634999999999998 C24.095000000000002,11.768 11.294,24.791999999999998 11.425,40.723 C11.425,40.723 11.408000000000001,55.817 11.408000000000001,55.817z" style="fill: rgb(174, 124, 63); fill-opacity: 1;"></path><path d=" M59.12,18.607 C59.12,18.607 62.477,32.399 53.086,42.428999999999995 C47.967999999999996,47.893 53.693,53.81399999999999 56.775999999999996,57.229 C58.586999999999996,59.232 58.001,61.282999999999994 55.419,61.663 C51.619,62.217999999999996 48.602999999999994,62.714 48.602999999999994,62.714 C51.66,66.434 55.482,74.25999999999999 53.373,81.203 C54.098,80.899 54.321,80.676 54.937999999999995,80.434 C58.821,78.91 68.267,72.341 69.478,56.583999999999996 C69.048,37.611 71.889,30.508 59.12,18.607z" style="fill: rgb(137, 89, 36); fill-opacity: 1;"></path><path d=" M23.037,24.488 C23.037,24.488 22.997,53.488 22.997,53.488 C22.997,53.488 11.282,53.492000000000004 11.282,53.492000000000004 C11.282,53.492000000000004 9.633,30.406 16.578,24.172 C19.688,23.904 23.037,24.488 23.037,24.488z" style="fill: rgb(7, 9, 9); fill-opacity: 1;"></path><path d=" M29.174,13.085 C29.165,17.226 32.517,20.589 36.662,20.594 C40.802,20.6 44.167,17.25 44.17,13.103 C44.175000000000004,8.96 40.824,5.601 36.683,5.594 C32.538000000000004,5.5920000000000005 29.175,8.940000000000001 29.174,13.085z" style="fill: rgb(7, 9, 9); fill-opacity: 1;"></path><path d=" M45.241,22.687 C45.231,26.83 48.59,30.193 52.732,30.2 C56.873000000000005,30.204 60.233000000000004,26.854 60.239000000000004,22.709 C60.243,18.568 56.891000000000005,15.204 52.75,15.198 C48.606,15.192 45.249,18.548000000000002 45.241,22.687z" style="fill: rgb(7, 9, 9); fill-opacity: 1;"></path><path d=" M46.665,16.607 C46.659,20.751 50.013,24.112000000000002 54.156,24.12 C58.297,24.124 61.659,20.772 61.665,16.628 C61.666,12.484 58.316,9.125 54.174,9.120000000000001 C50.034,9.114 46.672,12.468 46.665,16.607z" style="fill: rgb(7, 9, 9); fill-opacity: 1;"></path><path d=" M8.651999999999997,29.222 C8.645999999999997,33.366 11.992999999999999,36.724000000000004 16.137999999999998,36.733000000000004 C20.281,36.737 23.642,33.386 23.648,29.242 C23.654,25.097 20.305,21.739 16.159,21.731 C12.014999999999999,21.725 8.655999999999999,25.081000000000003 8.651999999999997,29.222z" style="fill: rgb(7, 9, 9); fill-opacity: 1;"></path><path d=" M11.896999999999998,29.723999999999997 C11.895,33.869 15.244999999999997,37.23 19.386999999999997,37.236 C23.529,37.242999999999995 26.892999999999997,33.89 26.898999999999997,29.747999999999998 C26.904999999999998,25.604999999999997 23.554,22.243 19.407,22.235 C15.267,22.230999999999998 11.901999999999997,25.581 11.896999999999998,29.723999999999997z" style="fill: rgb(7, 9, 9); fill-opacity: 1;"></path><path d=" M21.544999999999998,14.737 C21.54,17.432000000000002 23.716,19.617 26.410999999999998,19.62 C29.108,19.626 31.289,17.446 31.291,14.751000000000001 C31.296,12.06 29.119,9.874 26.43,9.873000000000001 C23.733,9.866 21.548,12.045 21.544999999999998,14.737z" style="fill: rgb(7, 9, 9); fill-opacity: 1;"></path><path d=" M22.034,23.988999999999997 C22.03,26.683 24.209999999999997,28.868 26.898999999999997,28.872 C29.590999999999998,28.872999999999998 31.778,26.698 31.779,24.002 C31.782999999999998,21.308 29.61,19.127 26.910999999999998,19.122 C24.221999999999998,19.118 22.034,21.294999999999998 22.034,23.988999999999997z" style="fill: rgb(7, 9, 9); fill-opacity: 1;"></path><path d=" M41.633,11.264000000000001 C41.631,13.959 43.809000000000005,16.143 46.501000000000005,16.147000000000002 C49.194,16.150000000000002 51.38,13.972000000000001 51.383,11.278 C51.385000000000005,8.585 49.205000000000005,6.4 46.516000000000005,6.396000000000001 C43.822,6.391000000000001 41.635000000000005,8.574000000000002 41.633,11.264000000000001z" style="fill: rgb(7, 9, 9); fill-opacity: 1;"></path><path d=" M38.041,18.011 C38.037,20.705 40.217,22.89 42.911,22.894 C45.601,22.897 47.785,20.72 47.791,18.026999999999997 C47.793,15.331999999999999 45.613,13.146999999999998 42.923,13.143999999999998 C40.229,13.139999999999999 38.041,15.318999999999999 38.041,18.011z" style="fill: rgb(7, 9, 9); fill-opacity: 1;"></path><path d=" M37.781000000000006,24.429000000000002 C37.775000000000006,27.119 39.959,29.305 42.651,29.313000000000002 C45.343,29.316000000000003 47.527,27.135 47.528000000000006,24.439 C47.533,21.75 45.357000000000006,19.567 42.661,19.561 C39.973000000000006,19.558 37.783,21.736 37.781000000000006,24.429000000000002z" style="fill: rgb(7, 9, 9); fill-opacity: 1;"></path><path d=" M9.262,37.974999999999994 C9.259,40.666999999999994 11.438,42.852 14.129000000000001,42.855 C16.823,42.858999999999995 19.008000000000003,40.681 19.012,37.986999999999995 C19.015,35.294 16.836,33.107 14.145,33.105 C11.451,33.101 9.266,35.281 9.262,37.974999999999994z" style="fill: rgb(7, 9, 9); fill-opacity: 1;"></path><path d=" M57.205,21.125 C57.203,23.814999999999998 59.38,26 62.071,26.005 C64.765,26.009 66.952,23.829 66.955,21.137 C66.956,18.441 64.782,16.259 62.084,16.255 C59.394,16.250999999999998 57.206,18.429 57.205,21.125z" style="fill: rgb(7, 9, 9); fill-opacity: 1;"></path><path d=" M13.661000000000001,20.416999999999998 C13.656000000000002,23.625 16.255000000000003,26.233999999999998 19.466,26.237 C22.673000000000002,26.24 25.277,23.64 25.282,20.432 C25.288,17.223 22.691000000000003,14.614999999999998 19.482000000000003,14.611 C16.273,14.608 13.664000000000001,17.206 13.661000000000001,20.416999999999998z" style="fill: rgb(7, 9, 9); fill-opacity: 1;"></path><path d=" M29.596999999999998,20.082 C29.595999999999997,23.294 32.193999999999996,25.899 35.404999999999994,25.907 C38.613,25.912 41.214999999999996,23.311 41.221999999999994,20.099 C41.224,16.89 38.629,14.283999999999999 35.419999999999995,14.280000000000001 C32.208,14.274000000000001 29.602999999999998,16.873 29.596999999999998,20.082z" style="fill: rgb(7, 9, 9); fill-opacity: 1;"></path><path d=" M15.509999999999998,38.980999999999995 C15.508,41.674 17.683999999999997,43.858 20.378,43.861999999999995 C23.070999999999998,43.867999999999995 25.252,41.687999999999995 25.256,38.994 C25.264,36.302 23.085,34.116 20.394,34.114 C17.7,34.11 15.515999999999998,36.288 15.509999999999998,38.980999999999995z" style="fill: rgb(7, 9, 9); fill-opacity: 1;"></path><path d=" M23.371,18.325 C23.369,21.014999999999997 25.551,23.204 28.241,23.208 C30.930999999999997,23.211999999999996 33.119,21.031999999999996 33.123999999999995,18.339 C33.123,15.645999999999997 30.942,13.461999999999998 28.256,13.456999999999997 C25.561999999999998,13.454999999999998 23.377,15.631999999999998 23.371,18.325z" style="fill: rgb(7, 9, 9); fill-opacity: 1;"></path></g><g transform="matrix(1.4959873094710265,0.006161972219912113,-0.006161972219912113,1.4959873094710265,485.45175497604055,337.56160953558776)" style="-webkit-user-select: none;"><path d=" M42.726,68.463 C41.905,67.955 41.147,67.329 40.467,66.591 C40.187999999999995,66.285 40.207,65.81 40.512,65.53 C40.818,65.25099999999999 41.288,65.262 41.573,65.576 C43.306999999999995,67.464 45.664,68.50699999999999 48.195,68.512 C50.724999999999994,68.518 53.077999999999996,67.47999999999999 54.823,65.58999999999999 C55.102,65.288 55.580999999999996,65.26899999999999 55.882999999999996,65.55 C56.186,65.832 56.205,66.30499999999999 55.924,66.61099999999999 C53.891999999999996,68.80799999999999 51.144999999999996,70.01599999999999 48.193999999999996,70.01299999999999 C46.227,70.011 44.355,69.47099999999999 42.726,68.463z" style="fill: rgb(68, 69, 69); fill-opacity: 1;"></path><path d=" M43.028,71.988 C43.028,71.988 44.544,73.71799999999999 48.335,73.817 C52.18,73.917 53.943999999999996,71.188 53.943999999999996,71.188 C53.943999999999996,71.188 53.946,71.42699999999999 53.183,72.041 C52.424,72.67399999999999 50.343999999999994,73.78399999999999 48.436,73.919 C46.147,74.08 45.497,73.39399999999999 43.973,72.673 C43.242999999999995,72.195 43.028,71.988 43.028,71.988z M40.949,65.651 C40.949,65.651 44.763,68.86999999999999 48.546,68.6 C52.382,68.326 54.821,65.865 54.821,65.865 C54.821,65.865 54.745999999999995,66.27 53.891999999999996,66.749 C52.257,67.66499999999999 50.829,68.74 48.538,68.71 C45.114999999999995,68.66499999999999 41.294,66.326 40.98,65.89999999999999 C40.851,65.66799999999999 40.949,65.651 40.949,65.651z" style="fill: rgb(251, 255, 255); fill-opacity: 0;"></path><path d=" M53.682,41.717 C53.469,41.586 53.284,41.399 53.156,41.163 C52.758,40.437 53.027,39.524 53.751999999999995,39.128 C53.997,38.994 59.823,35.939 65.281,40.043 C65.943,40.54 66.078,41.482 65.579,42.142 C65.078,42.806 64.143,42.922 63.477,42.44 C59.54,39.452 55.232,41.735 55.192,41.76 C54.699,42.028999999999996 54.127,41.992 53.682,41.717z" style="fill: rgb(7, 9, 9); fill-opacity: 1;"></path><path d=" M31.329,42.602 C31.189000000000004,42.516 31.060000000000002,42.407999999999994 30.952,42.270999999999994 C30.432000000000002,41.629999999999995 30.527,40.69199999999999 31.166000000000004,40.171 C31.382000000000005,39.994 36.509,35.892999999999994 42.665000000000006,38.94499999999999 C43.405,39.302 43.712,40.211999999999996 43.343,40.955999999999996 C42.975,41.696999999999996 42.074000000000005,42.001 41.332,41.634 C36.936,39.455999999999996 33.216,42.370999999999995 33.06,42.495 C32.551,42.903 31.854000000000003,42.927 31.329,42.602z" style="fill: rgb(7, 9, 9); fill-opacity: 1;"></path><path d=" M54.506,49.717999999999996 C54.218999999999994,49.54 54.077999999999996,49.184999999999995 54.187,48.851 C54.845,46.83 56.705,45.464 58.815999999999995,45.449999999999996 C60.922999999999995,45.425999999999995 62.806,46.763999999999996 63.498,48.769999999999996 C63.632,49.160999999999994 63.425999999999995,49.586999999999996 63.034,49.723 C62.641999999999996,49.86 62.215999999999994,49.649 62.08,49.257 C61.596999999999994,47.863 60.291,46.934 58.827,46.949 C57.361999999999995,46.959999999999994 56.071999999999996,47.909 55.613,49.315 C55.483999999999995,49.708999999999996 55.06099999999999,49.925 54.668,49.796 C54.608999999999995,49.775999999999996 54.556,49.748999999999995 54.506,49.717999999999996z" style="fill: rgb(68, 69, 69); fill-opacity: 1;"></path><path d=" M33.627,49.896 C33.34,49.718 33.199,49.363 33.309000000000005,49.026 C33.965,47.009 35.825,45.64 37.939,45.621 C40.045,45.606 41.928000000000004,46.942 42.621,48.941 C42.757000000000005,49.333 42.549,49.761 42.158,49.896 C41.766,50.029 41.338,49.822 41.204,49.434000000000005 C40.72,48.041000000000004 39.413000000000004,47.112 37.95,47.121 C36.484,47.135000000000005 35.192,48.087 34.735,49.491 C34.606,49.884 34.183,50.1 33.79,49.971000000000004 C33.731,49.954 33.677,49.927 33.627,49.896z" style="fill: rgb(68, 69, 69); fill-opacity: 1;"></path><path d=" M52.300999999999995,47.091 C52.300999999999995,47.091 53.474999999999994,45.959 53.474999999999994,45.959 C52.159,44.596000000000004 50.403,43.849000000000004 48.504,43.845 C46.672999999999995,43.841 44.94,44.548 43.637,45.836 C43.637,45.836 44.778,46.992000000000004 44.778,46.992000000000004 C46.806999999999995,44.998000000000005 50.33,45.044000000000004 52.300999999999995,47.091z" style="fill: rgb(240, 91, 91); fill-opacity: 1;"></path><path d=" M50.785,50.973 C50.775999999999996,56.926 54.664,60.345 61.455,60.35 C67.777,60.36 70.863,56.053 71.793,51.373 C72.344,48.593 74.579,48.742000000000004 73.895,46.425 C73.244,44.212 71.445,44.965 69.925,44.18 C67.756,42.559 64.157,42.743 60.667,42.74 C53.933,42.732 50.793,45.348 50.785,50.973z M52.41,50.975 C52.416,46.274 54.812,44.363 60.665,44.370000000000005 C67.389,44.378 70.333,44.847 70.325,49.268 C70.319,53.636 67.997,58.730000000000004 61.46,58.722 C55.617,58.714 52.403,55.964 52.41,50.975z" style="fill: rgb(240, 91, 91); fill-opacity: 1;"></path><path d=" M36.384,42.80800000000001 C32.899,42.80500000000001 29.297,42.613 27.122,44.226000000000006 C25.603,45.011 23.810000000000002,44.245000000000005 23.148000000000003,46.454 C22.457,48.769000000000005 24.692,48.627 25.234,51.411 C26.156000000000002,56.098000000000006 29.225,60.409000000000006 35.551,60.417 C42.344,60.42700000000001 46.24,57.018 46.247,51.069 C46.255,45.444 43.117000000000004,42.81700000000001 36.384,42.80800000000001z M35.552,58.789 C29.014000000000003,58.779 26.698,53.67700000000001 26.708000000000002,49.312000000000005 C26.714000000000002,44.885000000000005 29.657000000000004,44.428000000000004 36.382000000000005,44.437000000000005 C42.242000000000004,44.447 44.623000000000005,46.366 44.619,51.065000000000005 C44.612,56.057 41.389,58.79600000000001 35.552,58.789z" style="fill: rgb(240, 91, 91); fill-opacity: 1;"></path><path d=" M12.903000000000002,47.550000000000004 C12.903000000000002,47.550000000000004 12.905000000000001,45.549 12.905000000000001,45.549 C12.905000000000001,45.549 24.407,45.566 24.407,45.566 C24.407,45.566 24.405,47.565000000000005 24.405,47.565000000000005 C24.405,47.565000000000005 12.903000000000002,47.550000000000004 12.903000000000002,47.550000000000004z" style="fill: rgb(240, 91, 91); fill-opacity: 1;"></path><path d=" M48.739999999999995,48.010000000000005 C48.806999999999995,46.80800000000001 50.963,45.831 51.049,47.510000000000005 C51.239,51.293000000000006 54.643,54.865 56.775999999999996,57.230000000000004 C58.586999999999996,59.233000000000004 58.001,61.284000000000006 55.419,61.664 C51.617999999999995,62.219 48.604,62.714000000000006 48.604,62.714000000000006 C48.604,62.714000000000006 48.739999999999995,48.010000000000005 48.739999999999995,48.010000000000005z" style="fill: rgb(174, 124, 63); fill-opacity: 1;"></path></g><g transform="matrix(1.4959873094710265,0.006161972219912113,-0.006161972219912113,1.4959873094710265,485.45175497604055,337.56160953558776)" style="-webkit-user-select: none;"><path d=" M10.158999999999999,42.413 C10.158999999999999,42.413 10.176,30.331 10.176,30.331 C10.188,22.295 13.325999999999999,14.745000000000001 19.016,9.07 C24.707,3.3949999999999996 32.553,0.277000000000001 40.59,0.28800000000000026 C40.59,0.28800000000000026 40.584,4.289999999999999 40.584,4.289999999999999 C33.614000000000004,4.279999999999998 26.776,6.982000000000001 21.841,11.902000000000001 C16.908,16.822000000000003 14.186,23.369 14.177,30.336 C14.177,30.336 14.158999999999999,42.421 14.158999999999999,42.421 C14.158999999999999,42.421 10.158999999999999,42.413 10.158999999999999,42.413z" style="fill: rgb(117, 117, 117); fill-opacity: 1;"></path><path d=" M13.888,63.754000000000005 C17.612000000000002,63.757000000000005 20.644,58.203 20.649,51.343 C20.659,44.484 17.643,38.921 13.919,38.919 C13.919,38.919 10.169,38.913 10.169,38.913 C6.438,38.907 3.4079999999999995,44.463 3.401,51.319 C3.3919999999999995,58.179 6.407,63.743 10.138,63.75 C10.138,63.75 13.888,63.754000000000005 13.888,63.754000000000005z" style="fill: rgb(117, 117, 117); fill-opacity: 1;"></path><path d=" M-0.18099999999999916,51.314 C-0.19799999999999862,61.899 6.324000000000001,63.742000000000004 10.053,63.749 C13.783000000000001,63.753 16.811,58.2 16.818,51.338 C16.830000000000002,44.482 13.818000000000001,38.919000000000004 10.088000000000001,38.912000000000006 C6.356000000000001,38.908 -0.1659999999999986,41.065000000000005 -0.18099999999999916,51.314z" style="fill: rgb(7, 9, 9); fill-opacity: 1;"></path></g></g></g></svg>